{
	"asset":{
		"generator":"Khronos glTF Blender I/O v4.1.63",
		"version":"2.0"
	},
	"scene":0,
	"scenes":[
		{
			"name":"Scene",
			"nodes":[
				0
			]
		}
	],
	"nodes":[
		{
			"mesh":0,
			"name":"meshes[0]",
			"rotation":[
				0.7071068286895752,
				0,
				0,
				0.7071068286895752
			]
		}
	],
	"materials":[
		{
			"doubleSided":true,
			"name":"Material.002",
			"normalTexture":{
				"index":0
			},
			"pbrMetallicRoughness":{
				"baseColorTexture":{
					"index":1
				},
				"metallicFactor":0,
				"roughnessFactor":0.5
			}
		},
		{
			"doubleSided":true,
			"name":"Material.003",
			"pbrMetallicRoughness":{
				"baseColorFactor":[
					0,
					0,
					0,
					1
				],
				"metallicFactor":0,
				"roughnessFactor":0.5
			}
		}
	],
	"meshes":[
		{
			"name":"Mesh",
			"primitives":[
				{
					"attributes":{
						"POSITION":0,
						"NORMAL":1,
						"TEXCOORD_0":2
					},
					"indices":3,
					"material":0
				},
				{
					"attributes":{
						"POSITION":4,
						"NORMAL":5,
						"TEXCOORD_0":6
					},
					"indices":7,
					"material":1
				}
			]
		}
	],
	"textures":[
		{
			"sampler":0,
			"source":0
		},
		{
			"sampler":0,
			"source":1
		}
	],
	"images":[
		{
			"mimeType":"image/jpeg",
			"name":"normal",
			"uri":"normal.jpg"
		},
		{
			"mimeType":"image/jpeg",
			"name":"base_color",
			"uri":"base_color.jpg"
		}
	],
	"accessors":[
		{
			"bufferView":0,
			"componentType":5126,
			"count":55152,
			"max":[
				0.20092031359672546,
				0.21504731476306915,
				-0.0032391429413110018
			],
			"min":[
				-0.19817174971103668,
				-0.21096086502075195,
				-0.39282938838005066
			],
			"type":"VEC3"
		},
		{
			"bufferView":1,
			"componentType":5126,
			"count":55152,
			"type":"VEC3"
		},
		{
			"bufferView":2,
			"componentType":5126,
			"count":55152,
			"type":"VEC2"
		},
		{
			"bufferView":3,
			"componentType":5123,
			"count":296220,
			"type":"SCALAR"
		},
		{
			"bufferView":4,
			"componentType":5126,
			"count":1181,
			"max":[
				0.19754453003406525,
				0.20889922976493835,
				1.1934108812283739e-08
			],
			"min":[
				-0.19478096067905426,
				-0.2091582864522934,
				-0.010187569074332714
			],
			"type":"VEC3"
		},
		{
			"bufferView":5,
			"componentType":5126,
			"count":1181,
			"type":"VEC3"
		},
		{
			"bufferView":6,
			"componentType":5126,
			"count":1181,
			"type":"VEC2"
		},
		{
			"bufferView":7,
			"componentType":5123,
			"count":3864,
			"type":"SCALAR"
		}
	],
	"bufferViews":[
		{
			"buffer":0,
			"byteLength":661824,
			"byteOffset":0,
			"target":34962
		},
		{
			"buffer":0,
			"byteLength":661824,
			"byteOffset":661824,
			"target":34962
		},
		{
			"buffer":0,
			"byteLength":441216,
			"byteOffset":1323648,
			"target":34962
		},
		{
			"buffer":0,
			"byteLength":592440,
			"byteOffset":1764864,
			"target":34963
		},
		{
			"buffer":0,
			"byteLength":14172,
			"byteOffset":2357304,
			"target":34962
		},
		{
			"buffer":0,
			"byteLength":14172,
			"byteOffset":2371476,
			"target":34962
		},
		{
			"buffer":0,
			"byteLength":9448,
			"byteOffset":2385648,
			"target":34962
		},
		{
			"buffer":0,
			"byteLength":7728,
			"byteOffset":2395096,
			"target":34963
		}
	],
	"samplers":[
		{
			"magFilter":9729,
			"minFilter":9987
		}
	],
	"buffers":[
		{
			"byteLength":2402824,
			"uri":"model.bin"
		}
	]
}
