{
	"asset":{
		"generator":"Khronos glTF Blender I/O v4.1.63",
		"version":"2.0"
	},
	"extensionsUsed":[
		"KHR_materials_specular"
	],
	"scene":0,
	"scenes":[
		{
			"name":"Scene",
			"nodes":[
				0
			]
		}
	],
	"nodes":[
		{
			"mesh":0,
			"name":"17_6_2024",
			"rotation":[
				0.7071068286895752,
				0,
				0,
				0.7071068286895752
			]
		}
	],
	"materials":[
		{
			"doubleSided":true,
			"extensions":{
				"KHR_materials_specular":{
					"specularFactor":0
				}
			},
			"name":"17_6_2024_0",
			"normalTexture":{
				"index":0
			},
			"pbrMetallicRoughness":{
				"baseColorTexture":{
					"index":1
				},
				"metallicRoughnessTexture":{
					"index":2
				},
				"roughnessFactor":0.9683772325515747
			}
		}
	],
	"meshes":[
		{
			"name":"17_6_2024",
			"primitives":[
				{
					"attributes":{
						"POSITION":0,
						"NORMAL":1,
						"TEXCOORD_0":2
					},
					"indices":3,
					"material":0
				}
			]
		}
	],
	"textures":[
		{
			"sampler":0,
			"source":0
		},
		{
			"sampler":0,
			"source":1
		},
		{
			"sampler":0,
			"source":2
		}
	],
	"images":[
		{
			"mimeType":"image/jpeg",
			"name":"vaza_normal",
			"uri":"vaza_normal.jpg"
		},
		{
			"mimeType":"image/jpeg",
			"name":"vaza_base_color",
			"uri":"vaza_base_color.jpg"
		},
		{
			"mimeType":"image/png",
			"name":"vaza_metallic",
			"uri":"vaza_metallic.png"
		}
	],
	"accessors":[
		{
			"bufferView":0,
			"componentType":5126,
			"count":285895,
			"max":[
				0.04868999868631363,
				0.05648399889469147,
				0
			],
			"min":[
				-0.047811999917030334,
				-0.05669499933719635,
				-0.12128899991512299
			],
			"type":"VEC3"
		},
		{
			"bufferView":1,
			"componentType":5126,
			"count":285895,
			"type":"VEC3"
		},
		{
			"bufferView":2,
			"componentType":5126,
			"count":285895,
			"type":"VEC2"
		},
		{
			"bufferView":3,
			"componentType":5125,
			"count":285945,
			"type":"SCALAR"
		}
	],
	"bufferViews":[
		{
			"buffer":0,
			"byteLength":3430740,
			"byteOffset":0,
			"target":34962
		},
		{
			"buffer":0,
			"byteLength":3430740,
			"byteOffset":3430740,
			"target":34962
		},
		{
			"buffer":0,
			"byteLength":2287160,
			"byteOffset":6861480,
			"target":34962
		},
		{
			"buffer":0,
			"byteLength":1143780,
			"byteOffset":9148640,
			"target":34963
		}
	],
	"samplers":[
		{
			"magFilter":9729,
			"minFilter":9987
		}
	],
	"buffers":[
		{
			"byteLength":10292420,
			"uri":"model.bin"
		}
	]
}
