<svg width="169" height="169" viewBox="0 0 169 169" fill="none" xmlns="http://www.w3.org/2000/svg">
<path d="M71.3041 101.62C76.3841 97.54 80.3641 94.2 83.2441 91.6C86.1241 88.96 88.5441 86.22 90.5041 83.38C92.5041 80.5 93.5041 77.68 93.5041 74.92C93.5041 72.32 92.8641 70.28 91.5841 68.8C90.3441 67.28 88.3241 66.52 85.5241 66.52C82.8041 66.52 80.6841 67.38 79.1641 69.1C77.6841 70.78 76.8841 73.04 76.7641 75.88H71.4841C71.6441 71.4 73.0041 67.94 75.5641 65.5C78.1241 63.06 81.4241 61.84 85.4641 61.84C89.5841 61.84 92.8441 62.98 95.2441 65.26C97.6841 67.54 98.9041 70.68 98.9041 74.68C98.9041 78 97.9041 81.24 95.9041 84.4C93.9441 87.52 91.7041 90.28 89.1841 92.68C86.6641 95.04 83.4441 97.8 79.5241 100.96H100.164V105.52H71.3041V101.62Z" fill="#F0BBFF"/>
<circle cx="84.5" cy="84.5" r="83" stroke="#F0BAFF" stroke-width="3"/>
</svg>
