<svg width="169" height="169" viewBox="0 0 169 169" fill="none" xmlns="http://www.w3.org/2000/svg">
<path d="M70.934 73.54C71.214 69.86 72.634 66.98 75.194 64.9C77.754 62.82 81.074 61.78 85.154 61.78C87.874 61.78 90.214 62.28 92.174 63.28C94.174 64.24 95.674 65.56 96.674 67.24C97.714 68.92 98.234 70.82 98.234 72.94C98.234 75.42 97.514 77.56 96.074 79.36C94.674 81.16 92.834 82.32 90.554 82.84V83.14C93.154 83.78 95.214 85.04 96.734 86.92C98.254 88.8 99.014 91.26 99.014 94.3C99.014 96.58 98.494 98.64 97.454 100.48C96.414 102.28 94.854 103.7 92.774 104.74C90.694 105.78 88.194 106.3 85.274 106.3C81.034 106.3 77.554 105.2 74.834 103C72.114 100.76 70.594 97.6 70.274 93.52H75.554C75.834 95.92 76.814 97.88 78.494 99.4C80.174 100.92 82.414 101.68 85.214 101.68C88.014 101.68 90.134 100.96 91.574 99.52C93.054 98.04 93.794 96.14 93.794 93.82C93.794 90.82 92.794 88.66 90.794 87.34C88.794 86.02 85.774 85.36 81.734 85.36H80.354V80.8H81.794C85.474 80.76 88.254 80.16 90.134 79C92.014 77.8 92.954 75.96 92.954 73.48C92.954 71.36 92.254 69.66 90.854 68.38C89.494 67.1 87.534 66.46 84.974 66.46C82.494 66.46 80.494 67.1 78.974 68.38C77.454 69.66 76.554 71.38 76.274 73.54H70.934Z" fill="#F0BBFF"/>
<circle cx="84.5" cy="84.5" r="83" stroke="#F0BAFF" stroke-width="3"/>
</svg>
